<?xml version="1.0" encoding="utf-8"?>
<!-- Generator: Adobe Illustrator 18.1.1, SVG Export Plug-In . SVG Version: 6.00 Build 0)  -->
<svg version="1.1" id="Layer_1" xmlns="http://www.w3.org/2000/svg" xmlns:xlink="http://www.w3.org/1999/xlink" x="0px" y="0px"
	 viewBox="0 0 600 600" enable-background="new 0 0 600 600" xml:space="preserve">
<rect fill="#AAC7E8" width="600" height="599"/>
<path fill="#9D9D9D" d="M79,412.8c0-102.9,98-252.7,219-252.7S521,309.9,521,412.8S419,599,298,599S79,515.7,79,412.8z"/>
<path fill="#4B4B4D" d="M328.4,450.4l-21.5,21.5c-3.8,3.8-9.9,3.8-13.7,0l-21.5-21.5c-6.1-6.1-1.8-16.5,6.9-16.5h43.1
	C330.2,433.9,334.5,444.3,328.4,450.4z"/>
<g>
	<path fill="#9D9D9D" d="M243.9,215.1c21.3,53.8-10.1,58.6-38.6,69.8s-58.8,30.9-80.1-22.9s-11.7-119.6,16.8-130.9
		S222.6,161.3,243.9,215.1z"/>
	<path fill="#CCCBCB" d="M225.6,222.4c5.7,14.5-5.5,32.6-28.1,41.5c-22.6,9-47.1,8-53.9-9.1c-16.9-42.7-12.3-84.6,10.4-93.6
		S208.7,179.6,225.6,222.4z"/>
</g>
<g>
	<path fill="#9D9D9D" d="M347.1,215.1c-21.3,53.8,10.1,58.6,38.6,69.8c28.5,11.3,58.8,30.9,80.1-22.9s11.7-119.6-16.8-130.9
		C420.4,119.9,368.4,161.3,347.1,215.1z"/>
	<path fill="#CCCBCB" d="M365.4,222.4c-5.7,14.5,5.5,32.6,28.1,41.5c22.6,9,47.1,8,53.9-9.1c16.9-42.7,12.3-84.6-10.4-93.6
		S382.3,179.6,365.4,222.4z"/>
</g>
<g>
	<ellipse fill="#4B4B4D" cx="236.7" cy="378.2" rx="11.2" ry="17.7"/>
	<ellipse fill="#4B4B4D" cx="363.3" cy="378.2" rx="11.2" ry="17.7"/>
</g>
<g>
	
		<line fill="none" stroke="#4B4B4D" stroke-width="8" stroke-linecap="round" stroke-miterlimit="10" x1="300" y1="451" x2="300" y2="507.4"/>
	<g>
		<path fill="none" stroke="#4B4B4D" stroke-width="8" stroke-linecap="round" stroke-miterlimit="10" d="M300,502.2
			c0,12.3-17.8,22.2-39.7,22.2s-39.7-10-39.7-22.2"/>
		<path fill="none" stroke="#4B4B4D" stroke-width="8" stroke-linecap="round" stroke-miterlimit="10" d="M379.3,502.2
			c0,12.3-17.8,22.2-39.7,22.2s-39.7-10-39.7-22.2"/>
	</g>
</g>
<g>
	<g>
		<path fill="#404041" d="M276.1,350.5v55.4H169.5v-55.4H276.1 M280.3,340.5h-115c-3.2,0-5.8,2.6-5.8,5.8v63.8
			c0,3.2,2.6,5.8,5.8,5.8h115c3.2,0,5.8-2.6,5.8-5.8v-63.8C286.1,343.1,283.5,340.5,280.3,340.5L280.3,340.5z"/>
	</g>
	<g>
		<path fill="#404041" d="M430.5,350.5v55.4H323.9v-55.4H430.5 M434.7,340.5h-115c-3.2,0-5.8,2.6-5.8,5.8v63.8
			c0,3.2,2.6,5.8,5.8,5.8h115c3.2,0,5.8-2.6,5.8-5.8v-63.8C440.5,343.1,437.9,340.5,434.7,340.5L434.7,340.5z"/>
	</g>
</g>
<path fill="none" stroke="#404041" stroke-width="10" stroke-miterlimit="10" d="M280.3,360.6c0,0,20.4-17.9,39.5,0"/>
<line fill="none" stroke="#404041" stroke-width="10" stroke-miterlimit="10" x1="165.6" y1="354.2" x2="99.4" y2="322.1"/>
<line fill="none" stroke="#404041" stroke-width="10" stroke-miterlimit="10" x1="431.6" y1="352.6" x2="499" y2="320.2"/>
</svg>
