<svg xmlns="http://www.w3.org/2000/svg" viewBox="0 0 532.51 629.64">
    <defs>
        <style>.cls-1{fill:#7b4cab;}.cls-2{fill:#f17ad1;}.cls-3{fill:#569ccb;}</style>
    </defs>

    <title>V mark</title>

    <g id="Layer_2" data-name="Layer 2">
        <g id="background">
            <polygon class="cls-1" points="407.51 181.63 438.51 245.63 274.51 515.63 200.51 515.63 407.51 181.63"/>
            <path class="cls-1" d="M532.51,189.63s-2,85.44-2,87a6,6,0,0,1-1,3l-192,332s-1.83,2.69-3,3-8,2-8,2l-56,13Z"/>
        </g>

        <g id="foreground">
            <path class="cls-2" d="M6.51,211.63l184,297s3.17,6.17,9,7,10-6,10-6l197-322a8.83,8.83,0,0,0,1-6c-1-4-15-13-15-13l-247-164s-10.33-6.67-14-4-2,10-2,10l45.12,168s.69,3.06-1.12,5-7,2-7,2h-148s-15.33-.67-18,6S6.51,211.63,6.51,211.63Z"/>

            <path class="cls-3" d="M223.51,564.63a12.06,12.06,0,0,1-1-6,15.54,15.54,0,0,1,2-6l218-360s2.67-4.92,4-6,6-1,6-1h72s7.92.08,8,4a19.64,19.64,0,0,1-2,8l-250,424s-5,7.67-10,8-10-7-10-7Z"/>
        </g>
    </g>
</svg>
